<?xml version="1.0" encoding="utf-8" standalone="no"?>
<!DOCTYPE svg PUBLIC "-//W3C//DTD SVG 1.1//EN"
  "http://www.w3.org/Graphics/SVG/1.1/DTD/svg11.dtd">
<svg xmlns:xlink="http://www.w3.org/1999/xlink" width="654.794688pt" height="327.922pt" viewBox="0 0 654.794688 327.922" xmlns="http://www.w3.org/2000/svg" version="1.1">
 <metadata>
  <rdf:RDF xmlns:dc="http://purl.org/dc/elements/1.1/" xmlns:cc="http://creativecommons.org/ns#" xmlns:rdf="http://www.w3.org/1999/02/22-rdf-syntax-ns#">
   <cc:Work>
    <dc:type rdf:resource="http://purl.org/dc/dcmitype/StillImage"/>
    <dc:date>2024-05-03T10:27:26.188805</dc:date>
    <dc:format>image/svg+xml</dc:format>
    <dc:creator>
     <cc:Agent>
      <dc:title>Matplotlib v3.8.0, https://matplotlib.org/</dc:title>
     </cc:Agent>
    </dc:creator>
   </cc:Work>
  </rdf:RDF>
 </metadata>
 <defs>
  <style type="text/css">*{stroke-linejoin: round; stroke-linecap: butt}</style>
 </defs>
 <g id="figure_1">
  <g id="patch_1">
   <path d="M -0 327.922 
L 654.794688 327.922 
L 654.794688 0 
L -0 0 
z
" style="fill: #ffffff"/>
  </g>
  <g id="axes_1">
   <g id="patch_2">
    <path d="M 42.53875 288.430125 
L 399.65875 288.430125 
L 399.65875 22.318125 
L 42.53875 22.318125 
z
" style="fill: #ffffff"/>
   </g>
   <g id="patch_3">
    <path d="M 57.41875 288.430125 
L 62.37875 288.430125 
L 62.37875 179.912193 
L 57.41875 179.912193 
z
" clip-path="url(#pca9487c2f9)" style="fill: #3b4cc0"/>
   </g>
   <g id="patch_4">
    <path d="M 116.93875 288.430125 
L 121.89875 288.430125 
L 121.89875 171.67213 
L 116.93875 171.67213 
z
" clip-path="url(#pca9487c2f9)" style="fill: #3b4cc0"/>
   </g>
   <g id="patch_5">
    <path d="M 176.45875 288.430125 
L 181.41875 288.430125 
L 181.41875 169.993466 
L 176.45875 169.993466 
z
" clip-path="url(#pca9487c2f9)" style="fill: #3b4cc0"/>
   </g>
   <g id="patch_6">
    <path d="M 235.97875 288.430125 
L 240.93875 288.430125 
L 240.93875 163.524731 
L 235.97875 163.524731 
z
" clip-path="url(#pca9487c2f9)" style="fill: #3b4cc0"/>
   </g>
   <g id="patch_7">
    <path d="M 295.49875 288.430125 
L 300.45875 288.430125 
L 300.45875 150.446125 
L 295.49875 150.446125 
z
" clip-path="url(#pca9487c2f9)" style="fill: #3b4cc0"/>
   </g>
   <g id="patch_8">
    <path d="M 355.01875 288.430125 
L 359.97875 288.430125 
L 359.97875 145.000626 
L 355.01875 145.000626 
z
" clip-path="url(#pca9487c2f9)" style="fill: #3b4cc0"/>
   </g>
   <g id="patch_9">
    <path d="M 62.37875 288.430125 
L 67.33875 288.430125 
L 67.33875 190.418987 
L 62.37875 190.418987 
z
" clip-path="url(#pca9487c2f9)" style="fill: #7b9ff9"/>
   </g>
   <g id="patch_10">
    <path d="M 121.89875 288.430125 
L 126.85875 288.430125 
L 126.85875 183.796999 
L 121.89875 183.796999 
z
" clip-path="url(#pca9487c2f9)" style="fill: #7b9ff9"/>
   </g>
   <g id="patch_11">
    <path d="M 181.41875 288.430125 
L 186.37875 288.430125 
L 186.37875 177.991175 
L 181.41875 177.991175 
z
" clip-path="url(#pca9487c2f9)" style="fill: #7b9ff9"/>
   </g>
   <g id="patch_12">
    <path d="M 240.93875 288.430125 
L 245.89875 288.430125 
L 245.89875 175.521294 
L 240.93875 175.521294 
z
" clip-path="url(#pca9487c2f9)" style="fill: #7b9ff9"/>
   </g>
   <g id="patch_13">
    <path d="M 300.45875 288.430125 
L 305.41875 288.430125 
L 305.41875 161.501781 
L 300.45875 161.501781 
z
" clip-path="url(#pca9487c2f9)" style="fill: #7b9ff9"/>
   </g>
   <g id="patch_14">
    <path d="M 359.97875 288.430125 
L 364.93875 288.430125 
L 364.93875 162.995471 
L 359.97875 162.995471 
z
" clip-path="url(#pca9487c2f9)" style="fill: #7b9ff9"/>
   </g>
   <g id="patch_15">
    <path d="M 67.33875 288.430125 
L 72.29875 288.430125 
L 72.29875 157.778478 
L 67.33875 157.778478 
z
" clip-path="url(#pca9487c2f9)" style="fill: #c0d4f5"/>
   </g>
   <g id="patch_16">
    <path d="M 126.85875 288.430125 
L 131.81875 288.430125 
L 131.81875 129.181629 
L 126.85875 129.181629 
z
" clip-path="url(#pca9487c2f9)" style="fill: #c0d4f5"/>
   </g>
   <g id="patch_17">
    <path d="M 186.37875 288.430125 
L 191.33875 288.430125 
L 191.33875 126.57275 
L 186.37875 126.57275 
z
" clip-path="url(#pca9487c2f9)" style="fill: #c0d4f5"/>
   </g>
   <g id="patch_18">
    <path d="M 245.89875 288.430125 
L 250.85875 288.430125 
L 250.85875 131.063442 
L 245.89875 131.063442 
z
" clip-path="url(#pca9487c2f9)" style="fill: #c0d4f5"/>
   </g>
   <g id="patch_19">
    <path d="M 305.41875 288.430125 
L 310.37875 288.430125 
L 310.37875 122.548235 
L 305.41875 122.548235 
z
" clip-path="url(#pca9487c2f9)" style="fill: #c0d4f5"/>
   </g>
   <g id="patch_20">
    <path d="M 364.93875 288.430125 
L 369.89875 288.430125 
L 369.89875 122.59528 
L 364.93875 122.59528 
z
" clip-path="url(#pca9487c2f9)" style="fill: #c0d4f5"/>
   </g>
   <g id="patch_21">
    <path d="M 72.29875 288.430125 
L 77.25875 288.430125 
L 77.25875 127.535041 
L 72.29875 127.535041 
z
" clip-path="url(#pca9487c2f9)" style="fill: #f2cbb7"/>
   </g>
   <g id="patch_22">
    <path d="M 131.81875 288.430125 
L 136.77875 288.430125 
L 136.77875 135.169218 
L 131.81875 135.169218 
z
" clip-path="url(#pca9487c2f9)" style="fill: #f2cbb7"/>
   </g>
   <g id="patch_23">
    <path d="M 191.33875 288.430125 
L 196.29875 288.430125 
L 196.29875 144.000913 
L 191.33875 144.000913 
z
" clip-path="url(#pca9487c2f9)" style="fill: #f2cbb7"/>
   </g>
   <g id="patch_24">
    <path d="M 250.85875 288.430125 
L 255.81875 288.430125 
L 255.81875 121.8896 
L 250.85875 121.8896 
z
" clip-path="url(#pca9487c2f9)" style="fill: #f2cbb7"/>
   </g>
   <g id="patch_25">
    <path d="M 310.37875 288.430125 
L 315.33875 288.430125 
L 315.33875 153.598163 
L 310.37875 153.598163 
z
" clip-path="url(#pca9487c2f9)" style="fill: #f2cbb7"/>
   </g>
   <g id="patch_26">
    <path d="M 369.89875 288.430125 
L 374.85875 288.430125 
L 374.85875 111.833657 
L 369.89875 111.833657 
z
" clip-path="url(#pca9487c2f9)" style="fill: #f2cbb7"/>
   </g>
   <g id="patch_27">
    <path d="M 77.25875 288.430125 
L 82.21875 288.430125 
L 82.21875 228.564922 
L 77.25875 228.564922 
z
" clip-path="url(#pca9487c2f9)" style="fill: #ee8468"/>
   </g>
   <g id="patch_28">
    <path d="M 136.77875 288.430125 
L 141.73875 288.430125 
L 141.73875 200.661151 
L 136.77875 200.661151 
z
" clip-path="url(#pca9487c2f9)" style="fill: #ee8468"/>
   </g>
   <g id="patch_29">
    <path d="M 196.29875 288.430125 
L 201.25875 288.430125 
L 201.25875 221.390507 
L 196.29875 221.390507 
z
" clip-path="url(#pca9487c2f9)" style="fill: #ee8468"/>
   </g>
   <g id="patch_30">
    <path d="M 255.81875 288.430125 
L 260.77875 288.430125 
L 260.77875 219.979146 
L 255.81875 219.979146 
z
" clip-path="url(#pca9487c2f9)" style="fill: #ee8468"/>
   </g>
   <g id="patch_31">
    <path d="M 315.33875 288.430125 
L 320.29875 288.430125 
L 320.29875 224.683681 
L 315.33875 224.683681 
z
" clip-path="url(#pca9487c2f9)" style="fill: #ee8468"/>
   </g>
   <g id="patch_32">
    <path d="M 374.85875 288.430125 
L 379.81875 288.430125 
L 379.81875 219.626306 
L 374.85875 219.626306 
z
" clip-path="url(#pca9487c2f9)" style="fill: #ee8468"/>
   </g>
   <g id="patch_33">
    <path d="M 82.21875 288.430125 
L 87.17875 288.430125 
L 87.17875 34.990125 
L 82.21875 34.990125 
z
" clip-path="url(#pca9487c2f9)" style="fill: #b40426"/>
   </g>
   <g id="patch_34">
    <path d="M 141.73875 288.430125 
L 146.69875 288.430125 
L 146.69875 96.414545 
L 141.73875 96.414545 
z
" clip-path="url(#pca9487c2f9)" style="fill: #b40426"/>
   </g>
   <g id="patch_35">
    <path d="M 201.25875 288.430125 
L 206.21875 288.430125 
L 206.21875 98.602154 
L 201.25875 98.602154 
z
" clip-path="url(#pca9487c2f9)" style="fill: #b40426"/>
   </g>
   <g id="patch_36">
    <path d="M 260.77875 288.430125 
L 265.73875 288.430125 
L 265.73875 85.89991 
L 260.77875 85.89991 
z
" clip-path="url(#pca9487c2f9)" style="fill: #b40426"/>
   </g>
   <g id="patch_37">
    <path d="M 320.29875 288.430125 
L 325.25875 288.430125 
L 325.25875 65.576321 
L 320.29875 65.576321 
z
" clip-path="url(#pca9487c2f9)" style="fill: #b40426"/>
   </g>
   <g id="patch_38">
    <path d="M 379.81875 288.430125 
L 384.77875 288.430125 
L 384.77875 91.898192 
L 379.81875 91.898192 
z
" clip-path="url(#pca9487c2f9)" style="fill: #b40426"/>
   </g>
   <g id="matplotlib.axis_1">
    <g id="xtick_1">
     <g id="line2d_1">
      <defs>
       <path id="mf6654b3d38" d="M 0 0 
L 0 3.5 
" style="stroke: #000000; stroke-width: 0.8"/>
      </defs>
      <g>
       <use xlink:href="#mf6654b3d38" x="72.29875" y="288.430125" style="stroke: #000000; stroke-width: 0.8"/>
      </g>
     </g>
     <g id="text_1">
      <!-- Northeast -->
      <g transform="translate(47.608906 303.028562) scale(0.1 -0.1)">
       <defs>
        <path id="DejaVuSans-4e" d="M 628 4666 
L 1478 4666 
L 3547 763 
L 3547 4666 
L 4159 4666 
L 4159 0 
L 3309 0 
L 1241 3903 
L 1241 0 
L 628 0 
L 628 4666 
z
" transform="scale(0.015625)"/>
        <path id="DejaVuSans-6f" d="M 1959 3097 
Q 1497 3097 1228 2736 
Q 959 2375 959 1747 
Q 959 1119 1226 758 
Q 1494 397 1959 397 
Q 2419 397 2687 759 
Q 2956 1122 2956 1747 
Q 2956 2369 2687 2733 
Q 2419 3097 1959 3097 
z
M 1959 3584 
Q 2709 3584 3137 3096 
Q 3566 2609 3566 1747 
Q 3566 888 3137 398 
Q 2709 -91 1959 -91 
Q 1206 -91 779 398 
Q 353 888 353 1747 
Q 353 2609 779 3096 
Q 1206 3584 1959 3584 
z
" transform="scale(0.015625)"/>
        <path id="DejaVuSans-72" d="M 2631 2963 
Q 2534 3019 2420 3045 
Q 2306 3072 2169 3072 
Q 1681 3072 1420 2755 
Q 1159 2438 1159 1844 
L 1159 0 
L 581 0 
L 581 3500 
L 1159 3500 
L 1159 2956 
Q 1341 3275 1631 3429 
Q 1922 3584 2338 3584 
Q 2397 3584 2469 3576 
Q 2541 3569 2628 3553 
L 2631 2963 
z
" transform="scale(0.015625)"/>
        <path id="DejaVuSans-74" d="M 1172 4494 
L 1172 3500 
L 2356 3500 
L 2356 3053 
L 1172 3053 
L 1172 1153 
Q 1172 725 1289 603 
Q 1406 481 1766 481 
L 2356 481 
L 2356 0 
L 1766 0 
Q 1100 0 847 248 
Q 594 497 594 1153 
L 594 3053 
L 172 3053 
L 172 3500 
L 594 3500 
L 594 4494 
L 1172 4494 
z
" transform="scale(0.015625)"/>
        <path id="DejaVuSans-68" d="M 3513 2113 
L 3513 0 
L 2938 0 
L 2938 2094 
Q 2938 2591 2744 2837 
Q 2550 3084 2163 3084 
Q 1697 3084 1428 2787 
Q 1159 2491 1159 1978 
L 1159 0 
L 581 0 
L 581 4863 
L 1159 4863 
L 1159 2956 
Q 1366 3272 1645 3428 
Q 1925 3584 2291 3584 
Q 2894 3584 3203 3211 
Q 3513 2838 3513 2113 
z
" transform="scale(0.015625)"/>
        <path id="DejaVuSans-65" d="M 3597 1894 
L 3597 1613 
L 953 1613 
Q 991 1019 1311 708 
Q 1631 397 2203 397 
Q 2534 397 2845 478 
Q 3156 559 3463 722 
L 3463 178 
Q 3153 47 2828 -22 
Q 2503 -91 2169 -91 
Q 1331 -91 842 396 
Q 353 884 353 1716 
Q 353 2575 817 3079 
Q 1281 3584 2069 3584 
Q 2775 3584 3186 3129 
Q 3597 2675 3597 1894 
z
M 3022 2063 
Q 3016 2534 2758 2815 
Q 2500 3097 2075 3097 
Q 1594 3097 1305 2825 
Q 1016 2553 972 2059 
L 3022 2063 
z
" transform="scale(0.015625)"/>
        <path id="DejaVuSans-61" d="M 2194 1759 
Q 1497 1759 1228 1600 
Q 959 1441 959 1056 
Q 959 750 1161 570 
Q 1363 391 1709 391 
Q 2188 391 2477 730 
Q 2766 1069 2766 1631 
L 2766 1759 
L 2194 1759 
z
M 3341 1997 
L 3341 0 
L 2766 0 
L 2766 531 
Q 2569 213 2275 61 
Q 1981 -91 1556 -91 
Q 1019 -91 701 211 
Q 384 513 384 1019 
Q 384 1609 779 1909 
Q 1175 2209 1959 2209 
L 2766 2209 
L 2766 2266 
Q 2766 2663 2505 2880 
Q 2244 3097 1772 3097 
Q 1472 3097 1187 3025 
Q 903 2953 641 2809 
L 641 3341 
Q 956 3463 1253 3523 
Q 1550 3584 1831 3584 
Q 2591 3584 2966 3190 
Q 3341 2797 3341 1997 
z
" transform="scale(0.015625)"/>
        <path id="DejaVuSans-73" d="M 2834 3397 
L 2834 2853 
Q 2591 2978 2328 3040 
Q 2066 3103 1784 3103 
Q 1356 3103 1142 2972 
Q 928 2841 928 2578 
Q 928 2378 1081 2264 
Q 1234 2150 1697 2047 
L 1894 2003 
Q 2506 1872 2764 1633 
Q 3022 1394 3022 966 
Q 3022 478 2636 193 
Q 2250 -91 1575 -91 
Q 1294 -91 989 -36 
Q 684 19 347 128 
L 347 722 
Q 666 556 975 473 
Q 1284 391 1588 391 
Q 1994 391 2212 530 
Q 2431 669 2431 922 
Q 2431 1156 2273 1281 
Q 2116 1406 1581 1522 
L 1381 1569 
Q 847 1681 609 1914 
Q 372 2147 372 2553 
Q 372 3047 722 3315 
Q 1072 3584 1716 3584 
Q 2034 3584 2315 3537 
Q 2597 3491 2834 3397 
z
" transform="scale(0.015625)"/>
       </defs>
       <use xlink:href="#DejaVuSans-4e"/>
       <use xlink:href="#DejaVuSans-6f" x="74.804688"/>
       <use xlink:href="#DejaVuSans-72" x="135.986328"/>
       <use xlink:href="#DejaVuSans-74" x="177.099609"/>
       <use xlink:href="#DejaVuSans-68" x="216.308594"/>
       <use xlink:href="#DejaVuSans-65" x="279.6875"/>
       <use xlink:href="#DejaVuSans-61" x="341.210938"/>
       <use xlink:href="#DejaVuSans-73" x="402.490234"/>
       <use xlink:href="#DejaVuSans-74" x="454.589844"/>
      </g>
     </g>
    </g>
    <g id="xtick_2">
     <g id="line2d_2">
      <g>
       <use xlink:href="#mf6654b3d38" x="131.81875" y="288.430125" style="stroke: #000000; stroke-width: 0.8"/>
      </g>
     </g>
     <g id="text_2">
      <!-- West -->
      <g transform="translate(119.527344 303.028562) scale(0.1 -0.1)">
       <defs>
        <path id="DejaVuSans-57" d="M 213 4666 
L 850 4666 
L 1831 722 
L 2809 4666 
L 3519 4666 
L 4500 722 
L 5478 4666 
L 6119 4666 
L 4947 0 
L 4153 0 
L 3169 4050 
L 2175 0 
L 1381 0 
L 213 4666 
z
" transform="scale(0.015625)"/>
       </defs>
       <use xlink:href="#DejaVuSans-57"/>
       <use xlink:href="#DejaVuSans-65" x="93.001953"/>
       <use xlink:href="#DejaVuSans-73" x="154.525391"/>
       <use xlink:href="#DejaVuSans-74" x="206.625"/>
      </g>
     </g>
    </g>
    <g id="xtick_3">
     <g id="line2d_3">
      <g>
       <use xlink:href="#mf6654b3d38" x="191.33875" y="288.430125" style="stroke: #000000; stroke-width: 0.8"/>
      </g>
     </g>
     <g id="text_3">
      <!-- Midwest -->
      <g transform="translate(170.730938 303.028562) scale(0.1 -0.1)">
       <defs>
        <path id="DejaVuSans-4d" d="M 628 4666 
L 1569 4666 
L 2759 1491 
L 3956 4666 
L 4897 4666 
L 4897 0 
L 4281 0 
L 4281 4097 
L 3078 897 
L 2444 897 
L 1241 4097 
L 1241 0 
L 628 0 
L 628 4666 
z
" transform="scale(0.015625)"/>
        <path id="DejaVuSans-69" d="M 603 3500 
L 1178 3500 
L 1178 0 
L 603 0 
L 603 3500 
z
M 603 4863 
L 1178 4863 
L 1178 4134 
L 603 4134 
L 603 4863 
z
" transform="scale(0.015625)"/>
        <path id="DejaVuSans-64" d="M 2906 2969 
L 2906 4863 
L 3481 4863 
L 3481 0 
L 2906 0 
L 2906 525 
Q 2725 213 2448 61 
Q 2172 -91 1784 -91 
Q 1150 -91 751 415 
Q 353 922 353 1747 
Q 353 2572 751 3078 
Q 1150 3584 1784 3584 
Q 2172 3584 2448 3432 
Q 2725 3281 2906 2969 
z
M 947 1747 
Q 947 1113 1208 752 
Q 1469 391 1925 391 
Q 2381 391 2643 752 
Q 2906 1113 2906 1747 
Q 2906 2381 2643 2742 
Q 2381 3103 1925 3103 
Q 1469 3103 1208 2742 
Q 947 2381 947 1747 
z
" transform="scale(0.015625)"/>
        <path id="DejaVuSans-77" d="M 269 3500 
L 844 3500 
L 1563 769 
L 2278 3500 
L 2956 3500 
L 3675 769 
L 4391 3500 
L 4966 3500 
L 4050 0 
L 3372 0 
L 2619 2869 
L 1863 0 
L 1184 0 
L 269 3500 
z
" transform="scale(0.015625)"/>
       </defs>
       <use xlink:href="#DejaVuSans-4d"/>
       <use xlink:href="#DejaVuSans-69" x="86.279297"/>
       <use xlink:href="#DejaVuSans-64" x="114.0625"/>
       <use xlink:href="#DejaVuSans-77" x="177.539062"/>
       <use xlink:href="#DejaVuSans-65" x="259.326172"/>
       <use xlink:href="#DejaVuSans-73" x="320.849609"/>
       <use xlink:href="#DejaVuSans-74" x="372.949219"/>
      </g>
     </g>
    </g>
    <g id="xtick_4">
     <g id="line2d_4">
      <g>
       <use xlink:href="#mf6654b3d38" x="250.85875" y="288.430125" style="stroke: #000000; stroke-width: 0.8"/>
      </g>
     </g>
     <g id="text_4">
      <!-- United States -->
      <g transform="translate(217.001719 303.028562) scale(0.1 -0.1)">
       <defs>
        <path id="DejaVuSans-55" d="M 556 4666 
L 1191 4666 
L 1191 1831 
Q 1191 1081 1462 751 
Q 1734 422 2344 422 
Q 2950 422 3222 751 
Q 3494 1081 3494 1831 
L 3494 4666 
L 4128 4666 
L 4128 1753 
Q 4128 841 3676 375 
Q 3225 -91 2344 -91 
Q 1459 -91 1007 375 
Q 556 841 556 1753 
L 556 4666 
z
" transform="scale(0.015625)"/>
        <path id="DejaVuSans-6e" d="M 3513 2113 
L 3513 0 
L 2938 0 
L 2938 2094 
Q 2938 2591 2744 2837 
Q 2550 3084 2163 3084 
Q 1697 3084 1428 2787 
Q 1159 2491 1159 1978 
L 1159 0 
L 581 0 
L 581 3500 
L 1159 3500 
L 1159 2956 
Q 1366 3272 1645 3428 
Q 1925 3584 2291 3584 
Q 2894 3584 3203 3211 
Q 3513 2838 3513 2113 
z
" transform="scale(0.015625)"/>
        <path id="DejaVuSans-20" transform="scale(0.015625)"/>
        <path id="DejaVuSans-53" d="M 3425 4513 
L 3425 3897 
Q 3066 4069 2747 4153 
Q 2428 4238 2131 4238 
Q 1616 4238 1336 4038 
Q 1056 3838 1056 3469 
Q 1056 3159 1242 3001 
Q 1428 2844 1947 2747 
L 2328 2669 
Q 3034 2534 3370 2195 
Q 3706 1856 3706 1288 
Q 3706 609 3251 259 
Q 2797 -91 1919 -91 
Q 1588 -91 1214 -16 
Q 841 59 441 206 
L 441 856 
Q 825 641 1194 531 
Q 1563 422 1919 422 
Q 2459 422 2753 634 
Q 3047 847 3047 1241 
Q 3047 1584 2836 1778 
Q 2625 1972 2144 2069 
L 1759 2144 
Q 1053 2284 737 2584 
Q 422 2884 422 3419 
Q 422 4038 858 4394 
Q 1294 4750 2059 4750 
Q 2388 4750 2728 4690 
Q 3069 4631 3425 4513 
z
" transform="scale(0.015625)"/>
       </defs>
       <use xlink:href="#DejaVuSans-55"/>
       <use xlink:href="#DejaVuSans-6e" x="73.193359"/>
       <use xlink:href="#DejaVuSans-69" x="136.572266"/>
       <use xlink:href="#DejaVuSans-74" x="164.355469"/>
       <use xlink:href="#DejaVuSans-65" x="203.564453"/>
       <use xlink:href="#DejaVuSans-64" x="265.087891"/>
       <use xlink:href="#DejaVuSans-20" x="328.564453"/>
       <use xlink:href="#DejaVuSans-53" x="360.351562"/>
       <use xlink:href="#DejaVuSans-74" x="423.828125"/>
       <use xlink:href="#DejaVuSans-61" x="463.037109"/>
       <use xlink:href="#DejaVuSans-74" x="524.316406"/>
       <use xlink:href="#DejaVuSans-65" x="563.525391"/>
       <use xlink:href="#DejaVuSans-73" x="625.048828"/>
      </g>
     </g>
    </g>
    <g id="xtick_5">
     <g id="line2d_5">
      <g>
       <use xlink:href="#mf6654b3d38" x="310.37875" y="288.430125" style="stroke: #000000; stroke-width: 0.8"/>
      </g>
     </g>
     <g id="text_5">
      <!-- South -->
      <g transform="translate(295.8475 303.028562) scale(0.1 -0.1)">
       <defs>
        <path id="DejaVuSans-75" d="M 544 1381 
L 544 3500 
L 1119 3500 
L 1119 1403 
Q 1119 906 1312 657 
Q 1506 409 1894 409 
Q 2359 409 2629 706 
Q 2900 1003 2900 1516 
L 2900 3500 
L 3475 3500 
L 3475 0 
L 2900 0 
L 2900 538 
Q 2691 219 2414 64 
Q 2138 -91 1772 -91 
Q 1169 -91 856 284 
Q 544 659 544 1381 
z
M 1991 3584 
L 1991 3584 
z
" transform="scale(0.015625)"/>
       </defs>
       <use xlink:href="#DejaVuSans-53"/>
       <use xlink:href="#DejaVuSans-6f" x="63.476562"/>
       <use xlink:href="#DejaVuSans-75" x="124.658203"/>
       <use xlink:href="#DejaVuSans-74" x="188.037109"/>
       <use xlink:href="#DejaVuSans-68" x="227.246094"/>
      </g>
     </g>
    </g>
    <g id="xtick_6">
     <g id="line2d_6">
      <g>
       <use xlink:href="#mf6654b3d38" x="369.89875" y="288.430125" style="stroke: #000000; stroke-width: 0.8"/>
      </g>
     </g>
     <g id="text_6">
      <!-- Southwest -->
      <g transform="translate(343.637031 303.028562) scale(0.1 -0.1)">
       <use xlink:href="#DejaVuSans-53"/>
       <use xlink:href="#DejaVuSans-6f" x="63.476562"/>
       <use xlink:href="#DejaVuSans-75" x="124.658203"/>
       <use xlink:href="#DejaVuSans-74" x="188.037109"/>
       <use xlink:href="#DejaVuSans-68" x="227.246094"/>
       <use xlink:href="#DejaVuSans-77" x="290.625"/>
       <use xlink:href="#DejaVuSans-65" x="372.412109"/>
       <use xlink:href="#DejaVuSans-73" x="433.935547"/>
       <use xlink:href="#DejaVuSans-74" x="486.035156"/>
      </g>
     </g>
    </g>
    <g id="text_7">
     <!-- Region -->
     <g transform="translate(200.558125 318.226375) scale(0.12 -0.12)">
      <defs>
       <path id="DejaVuSans-52" d="M 2841 2188 
Q 3044 2119 3236 1894 
Q 3428 1669 3622 1275 
L 4263 0 
L 3584 0 
L 2988 1197 
Q 2756 1666 2539 1819 
Q 2322 1972 1947 1972 
L 1259 1972 
L 1259 0 
L 628 0 
L 628 4666 
L 2053 4666 
Q 2853 4666 3247 4331 
Q 3641 3997 3641 3322 
Q 3641 2881 3436 2590 
Q 3231 2300 2841 2188 
z
M 1259 4147 
L 1259 2491 
L 2053 2491 
Q 2509 2491 2742 2702 
Q 2975 2913 2975 3322 
Q 2975 3731 2742 3939 
Q 2509 4147 2053 4147 
L 1259 4147 
z
" transform="scale(0.015625)"/>
       <path id="DejaVuSans-67" d="M 2906 1791 
Q 2906 2416 2648 2759 
Q 2391 3103 1925 3103 
Q 1463 3103 1205 2759 
Q 947 2416 947 1791 
Q 947 1169 1205 825 
Q 1463 481 1925 481 
Q 2391 481 2648 825 
Q 2906 1169 2906 1791 
z
M 3481 434 
Q 3481 -459 3084 -895 
Q 2688 -1331 1869 -1331 
Q 1566 -1331 1297 -1286 
Q 1028 -1241 775 -1147 
L 775 -588 
Q 1028 -725 1275 -790 
Q 1522 -856 1778 -856 
Q 2344 -856 2625 -561 
Q 2906 -266 2906 331 
L 2906 616 
Q 2728 306 2450 153 
Q 2172 0 1784 0 
Q 1141 0 747 490 
Q 353 981 353 1791 
Q 353 2603 747 3093 
Q 1141 3584 1784 3584 
Q 2172 3584 2450 3431 
Q 2728 3278 2906 2969 
L 2906 3500 
L 3481 3500 
L 3481 434 
z
" transform="scale(0.015625)"/>
      </defs>
      <use xlink:href="#DejaVuSans-52"/>
      <use xlink:href="#DejaVuSans-65" x="64.982422"/>
      <use xlink:href="#DejaVuSans-67" x="126.505859"/>
      <use xlink:href="#DejaVuSans-69" x="189.982422"/>
      <use xlink:href="#DejaVuSans-6f" x="217.765625"/>
      <use xlink:href="#DejaVuSans-6e" x="278.947266"/>
     </g>
    </g>
   </g>
   <g id="matplotlib.axis_2">
    <g id="ytick_1">
     <g id="line2d_7">
      <defs>
       <path id="maff8df3ac0" d="M 0 0 
L -3.5 0 
" style="stroke: #000000; stroke-width: 0.8"/>
      </defs>
      <g>
       <use xlink:href="#maff8df3ac0" x="42.53875" y="288.430125" style="stroke: #000000; stroke-width: 0.8"/>
      </g>
     </g>
     <g id="text_8">
      <!-- 0 -->
      <g transform="translate(29.17625 292.229344) scale(0.1 -0.1)">
       <defs>
        <path id="DejaVuSans-30" d="M 2034 4250 
Q 1547 4250 1301 3770 
Q 1056 3291 1056 2328 
Q 1056 1369 1301 889 
Q 1547 409 2034 409 
Q 2525 409 2770 889 
Q 3016 1369 3016 2328 
Q 3016 3291 2770 3770 
Q 2525 4250 2034 4250 
z
M 2034 4750 
Q 2819 4750 3233 4129 
Q 3647 3509 3647 2328 
Q 3647 1150 3233 529 
Q 2819 -91 2034 -91 
Q 1250 -91 836 529 
Q 422 1150 422 2328 
Q 422 3509 836 4129 
Q 1250 4750 2034 4750 
z
" transform="scale(0.015625)"/>
       </defs>
       <use xlink:href="#DejaVuSans-30"/>
      </g>
     </g>
    </g>
    <g id="ytick_2">
     <g id="line2d_8">
      <g>
       <use xlink:href="#maff8df3ac0" x="42.53875" y="253.146115" style="stroke: #000000; stroke-width: 0.8"/>
      </g>
     </g>
     <g id="text_9">
      <!-- 5 -->
      <g transform="translate(29.17625 256.945334) scale(0.1 -0.1)">
       <defs>
        <path id="DejaVuSans-35" d="M 691 4666 
L 3169 4666 
L 3169 4134 
L 1269 4134 
L 1269 2991 
Q 1406 3038 1543 3061 
Q 1681 3084 1819 3084 
Q 2600 3084 3056 2656 
Q 3513 2228 3513 1497 
Q 3513 744 3044 326 
Q 2575 -91 1722 -91 
Q 1428 -91 1123 -41 
Q 819 9 494 109 
L 494 744 
Q 775 591 1075 516 
Q 1375 441 1709 441 
Q 2250 441 2565 725 
Q 2881 1009 2881 1497 
Q 2881 1984 2565 2268 
Q 2250 2553 1709 2553 
Q 1456 2553 1204 2497 
Q 953 2441 691 2322 
L 691 4666 
z
" transform="scale(0.015625)"/>
       </defs>
       <use xlink:href="#DejaVuSans-35"/>
      </g>
     </g>
    </g>
    <g id="ytick_3">
     <g id="line2d_9">
      <g>
       <use xlink:href="#maff8df3ac0" x="42.53875" y="217.862106" style="stroke: #000000; stroke-width: 0.8"/>
      </g>
     </g>
     <g id="text_10">
      <!-- 10 -->
      <g transform="translate(22.81375 221.661325) scale(0.1 -0.1)">
       <defs>
        <path id="DejaVuSans-31" d="M 794 531 
L 1825 531 
L 1825 4091 
L 703 3866 
L 703 4441 
L 1819 4666 
L 2450 4666 
L 2450 531 
L 3481 531 
L 3481 0 
L 794 0 
L 794 531 
z
" transform="scale(0.015625)"/>
       </defs>
       <use xlink:href="#DejaVuSans-31"/>
       <use xlink:href="#DejaVuSans-30" x="63.623047"/>
      </g>
     </g>
    </g>
    <g id="ytick_4">
     <g id="line2d_10">
      <g>
       <use xlink:href="#maff8df3ac0" x="42.53875" y="182.578096" style="stroke: #000000; stroke-width: 0.8"/>
      </g>
     </g>
     <g id="text_11">
      <!-- 15 -->
      <g transform="translate(22.81375 186.377315) scale(0.1 -0.1)">
       <use xlink:href="#DejaVuSans-31"/>
       <use xlink:href="#DejaVuSans-35" x="63.623047"/>
      </g>
     </g>
    </g>
    <g id="ytick_5">
     <g id="line2d_11">
      <g>
       <use xlink:href="#maff8df3ac0" x="42.53875" y="147.294087" style="stroke: #000000; stroke-width: 0.8"/>
      </g>
     </g>
     <g id="text_12">
      <!-- 20 -->
      <g transform="translate(22.81375 151.093306) scale(0.1 -0.1)">
       <defs>
        <path id="DejaVuSans-32" d="M 1228 531 
L 3431 531 
L 3431 0 
L 469 0 
L 469 531 
Q 828 903 1448 1529 
Q 2069 2156 2228 2338 
Q 2531 2678 2651 2914 
Q 2772 3150 2772 3378 
Q 2772 3750 2511 3984 
Q 2250 4219 1831 4219 
Q 1534 4219 1204 4116 
Q 875 4013 500 3803 
L 500 4441 
Q 881 4594 1212 4672 
Q 1544 4750 1819 4750 
Q 2544 4750 2975 4387 
Q 3406 4025 3406 3419 
Q 3406 3131 3298 2873 
Q 3191 2616 2906 2266 
Q 2828 2175 2409 1742 
Q 1991 1309 1228 531 
z
" transform="scale(0.015625)"/>
       </defs>
       <use xlink:href="#DejaVuSans-32"/>
       <use xlink:href="#DejaVuSans-30" x="63.623047"/>
      </g>
     </g>
    </g>
    <g id="ytick_6">
     <g id="line2d_12">
      <g>
       <use xlink:href="#maff8df3ac0" x="42.53875" y="112.010077" style="stroke: #000000; stroke-width: 0.8"/>
      </g>
     </g>
     <g id="text_13">
      <!-- 25 -->
      <g transform="translate(22.81375 115.809296) scale(0.1 -0.1)">
       <use xlink:href="#DejaVuSans-32"/>
       <use xlink:href="#DejaVuSans-35" x="63.623047"/>
      </g>
     </g>
    </g>
    <g id="ytick_7">
     <g id="line2d_13">
      <g>
       <use xlink:href="#maff8df3ac0" x="42.53875" y="76.726068" style="stroke: #000000; stroke-width: 0.8"/>
      </g>
     </g>
     <g id="text_14">
      <!-- 30 -->
      <g transform="translate(22.81375 80.525286) scale(0.1 -0.1)">
       <defs>
        <path id="DejaVuSans-33" d="M 2597 2516 
Q 3050 2419 3304 2112 
Q 3559 1806 3559 1356 
Q 3559 666 3084 287 
Q 2609 -91 1734 -91 
Q 1441 -91 1130 -33 
Q 819 25 488 141 
L 488 750 
Q 750 597 1062 519 
Q 1375 441 1716 441 
Q 2309 441 2620 675 
Q 2931 909 2931 1356 
Q 2931 1769 2642 2001 
Q 2353 2234 1838 2234 
L 1294 2234 
L 1294 2753 
L 1863 2753 
Q 2328 2753 2575 2939 
Q 2822 3125 2822 3475 
Q 2822 3834 2567 4026 
Q 2313 4219 1838 4219 
Q 1578 4219 1281 4162 
Q 984 4106 628 3988 
L 628 4550 
Q 988 4650 1302 4700 
Q 1616 4750 1894 4750 
Q 2613 4750 3031 4423 
Q 3450 4097 3450 3541 
Q 3450 3153 3228 2886 
Q 3006 2619 2597 2516 
z
" transform="scale(0.015625)"/>
       </defs>
       <use xlink:href="#DejaVuSans-33"/>
       <use xlink:href="#DejaVuSans-30" x="63.623047"/>
      </g>
     </g>
    </g>
    <g id="ytick_8">
     <g id="line2d_14">
      <g>
       <use xlink:href="#maff8df3ac0" x="42.53875" y="41.442058" style="stroke: #000000; stroke-width: 0.8"/>
      </g>
     </g>
     <g id="text_15">
      <!-- 35 -->
      <g transform="translate(22.81375 45.241277) scale(0.1 -0.1)">
       <use xlink:href="#DejaVuSans-33"/>
       <use xlink:href="#DejaVuSans-35" x="63.623047"/>
      </g>
     </g>
    </g>
    <g id="text_16">
     <!-- Percent Reporting Fair or Poor Health -->
     <g transform="translate(16.318125 266.40975) rotate(-90) scale(0.12 -0.12)">
      <defs>
       <path id="DejaVuSans-50" d="M 1259 4147 
L 1259 2394 
L 2053 2394 
Q 2494 2394 2734 2622 
Q 2975 2850 2975 3272 
Q 2975 3691 2734 3919 
Q 2494 4147 2053 4147 
L 1259 4147 
z
M 628 4666 
L 2053 4666 
Q 2838 4666 3239 4311 
Q 3641 3956 3641 3272 
Q 3641 2581 3239 2228 
Q 2838 1875 2053 1875 
L 1259 1875 
L 1259 0 
L 628 0 
L 628 4666 
z
" transform="scale(0.015625)"/>
       <path id="DejaVuSans-63" d="M 3122 3366 
L 3122 2828 
Q 2878 2963 2633 3030 
Q 2388 3097 2138 3097 
Q 1578 3097 1268 2742 
Q 959 2388 959 1747 
Q 959 1106 1268 751 
Q 1578 397 2138 397 
Q 2388 397 2633 464 
Q 2878 531 3122 666 
L 3122 134 
Q 2881 22 2623 -34 
Q 2366 -91 2075 -91 
Q 1284 -91 818 406 
Q 353 903 353 1747 
Q 353 2603 823 3093 
Q 1294 3584 2113 3584 
Q 2378 3584 2631 3529 
Q 2884 3475 3122 3366 
z
" transform="scale(0.015625)"/>
       <path id="DejaVuSans-70" d="M 1159 525 
L 1159 -1331 
L 581 -1331 
L 581 3500 
L 1159 3500 
L 1159 2969 
Q 1341 3281 1617 3432 
Q 1894 3584 2278 3584 
Q 2916 3584 3314 3078 
Q 3713 2572 3713 1747 
Q 3713 922 3314 415 
Q 2916 -91 2278 -91 
Q 1894 -91 1617 61 
Q 1341 213 1159 525 
z
M 3116 1747 
Q 3116 2381 2855 2742 
Q 2594 3103 2138 3103 
Q 1681 3103 1420 2742 
Q 1159 2381 1159 1747 
Q 1159 1113 1420 752 
Q 1681 391 2138 391 
Q 2594 391 2855 752 
Q 3116 1113 3116 1747 
z
" transform="scale(0.015625)"/>
       <path id="DejaVuSans-46" d="M 628 4666 
L 3309 4666 
L 3309 4134 
L 1259 4134 
L 1259 2759 
L 3109 2759 
L 3109 2228 
L 1259 2228 
L 1259 0 
L 628 0 
L 628 4666 
z
" transform="scale(0.015625)"/>
       <path id="DejaVuSans-48" d="M 628 4666 
L 1259 4666 
L 1259 2753 
L 3553 2753 
L 3553 4666 
L 4184 4666 
L 4184 0 
L 3553 0 
L 3553 2222 
L 1259 2222 
L 1259 0 
L 628 0 
L 628 4666 
z
" transform="scale(0.015625)"/>
       <path id="DejaVuSans-6c" d="M 603 4863 
L 1178 4863 
L 1178 0 
L 603 0 
L 603 4863 
z
" transform="scale(0.015625)"/>
      </defs>
      <use xlink:href="#DejaVuSans-50"/>
      <use xlink:href="#DejaVuSans-65" x="56.677734"/>
      <use xlink:href="#DejaVuSans-72" x="118.201172"/>
      <use xlink:href="#DejaVuSans-63" x="157.064453"/>
      <use xlink:href="#DejaVuSans-65" x="212.044922"/>
      <use xlink:href="#DejaVuSans-6e" x="273.568359"/>
      <use xlink:href="#DejaVuSans-74" x="336.947266"/>
      <use xlink:href="#DejaVuSans-20" x="376.15625"/>
      <use xlink:href="#DejaVuSans-52" x="407.943359"/>
      <use xlink:href="#DejaVuSans-65" x="472.925781"/>
      <use xlink:href="#DejaVuSans-70" x="534.449219"/>
      <use xlink:href="#DejaVuSans-6f" x="597.925781"/>
      <use xlink:href="#DejaVuSans-72" x="659.107422"/>
      <use xlink:href="#DejaVuSans-74" x="700.220703"/>
      <use xlink:href="#DejaVuSans-69" x="739.429688"/>
      <use xlink:href="#DejaVuSans-6e" x="767.212891"/>
      <use xlink:href="#DejaVuSans-67" x="830.591797"/>
      <use xlink:href="#DejaVuSans-20" x="894.068359"/>
      <use xlink:href="#DejaVuSans-46" x="925.855469"/>
      <use xlink:href="#DejaVuSans-61" x="974.25"/>
      <use xlink:href="#DejaVuSans-69" x="1035.529297"/>
      <use xlink:href="#DejaVuSans-72" x="1063.3125"/>
      <use xlink:href="#DejaVuSans-20" x="1104.425781"/>
      <use xlink:href="#DejaVuSans-6f" x="1136.212891"/>
      <use xlink:href="#DejaVuSans-72" x="1197.394531"/>
      <use xlink:href="#DejaVuSans-20" x="1238.507812"/>
      <use xlink:href="#DejaVuSans-50" x="1270.294922"/>
      <use xlink:href="#DejaVuSans-6f" x="1326.972656"/>
      <use xlink:href="#DejaVuSans-6f" x="1388.154297"/>
      <use xlink:href="#DejaVuSans-72" x="1449.335938"/>
      <use xlink:href="#DejaVuSans-20" x="1490.449219"/>
      <use xlink:href="#DejaVuSans-48" x="1522.236328"/>
      <use xlink:href="#DejaVuSans-65" x="1597.431641"/>
      <use xlink:href="#DejaVuSans-61" x="1658.955078"/>
      <use xlink:href="#DejaVuSans-6c" x="1720.234375"/>
      <use xlink:href="#DejaVuSans-74" x="1748.017578"/>
      <use xlink:href="#DejaVuSans-68" x="1787.226562"/>
     </g>
    </g>
   </g>
   <g id="patch_39">
    <path d="M 42.53875 288.430125 
L 42.53875 22.318125 
" style="fill: none; stroke: #000000; stroke-width: 0.8; stroke-linejoin: miter; stroke-linecap: square"/>
   </g>
   <g id="patch_40">
    <path d="M 399.65875 288.430125 
L 399.65875 22.318125 
" style="fill: none; stroke: #000000; stroke-width: 0.8; stroke-linejoin: miter; stroke-linecap: square"/>
   </g>
   <g id="patch_41">
    <path d="M 42.53875 288.430125 
L 399.65875 288.430125 
" style="fill: none; stroke: #000000; stroke-width: 0.8; stroke-linejoin: miter; stroke-linecap: square"/>
   </g>
   <g id="patch_42">
    <path d="M 42.53875 22.318125 
L 399.65875 22.318125 
" style="fill: none; stroke: #000000; stroke-width: 0.8; stroke-linejoin: miter; stroke-linecap: square"/>
   </g>
   <g id="text_17">
    <!-- Percent of Adults Reporting Fair or Poor Health by Region -->
    <g transform="translate(49.995625 16.318125) scale(0.12 -0.12)">
     <defs>
      <path id="DejaVuSans-66" d="M 2375 4863 
L 2375 4384 
L 1825 4384 
Q 1516 4384 1395 4259 
Q 1275 4134 1275 3809 
L 1275 3500 
L 2222 3500 
L 2222 3053 
L 1275 3053 
L 1275 0 
L 697 0 
L 697 3053 
L 147 3053 
L 147 3500 
L 697 3500 
L 697 3744 
Q 697 4328 969 4595 
Q 1241 4863 1831 4863 
L 2375 4863 
z
" transform="scale(0.015625)"/>
      <path id="DejaVuSans-41" d="M 2188 4044 
L 1331 1722 
L 3047 1722 
L 2188 4044 
z
M 1831 4666 
L 2547 4666 
L 4325 0 
L 3669 0 
L 3244 1197 
L 1141 1197 
L 716 0 
L 50 0 
L 1831 4666 
z
" transform="scale(0.015625)"/>
      <path id="DejaVuSans-62" d="M 3116 1747 
Q 3116 2381 2855 2742 
Q 2594 3103 2138 3103 
Q 1681 3103 1420 2742 
Q 1159 2381 1159 1747 
Q 1159 1113 1420 752 
Q 1681 391 2138 391 
Q 2594 391 2855 752 
Q 3116 1113 3116 1747 
z
M 1159 2969 
Q 1341 3281 1617 3432 
Q 1894 3584 2278 3584 
Q 2916 3584 3314 3078 
Q 3713 2572 3713 1747 
Q 3713 922 3314 415 
Q 2916 -91 2278 -91 
Q 1894 -91 1617 61 
Q 1341 213 1159 525 
L 1159 0 
L 581 0 
L 581 4863 
L 1159 4863 
L 1159 2969 
z
" transform="scale(0.015625)"/>
      <path id="DejaVuSans-79" d="M 2059 -325 
Q 1816 -950 1584 -1140 
Q 1353 -1331 966 -1331 
L 506 -1331 
L 506 -850 
L 844 -850 
Q 1081 -850 1212 -737 
Q 1344 -625 1503 -206 
L 1606 56 
L 191 3500 
L 800 3500 
L 1894 763 
L 2988 3500 
L 3597 3500 
L 2059 -325 
z
" transform="scale(0.015625)"/>
     </defs>
     <use xlink:href="#DejaVuSans-50"/>
     <use xlink:href="#DejaVuSans-65" x="56.677734"/>
     <use xlink:href="#DejaVuSans-72" x="118.201172"/>
     <use xlink:href="#DejaVuSans-63" x="157.064453"/>
     <use xlink:href="#DejaVuSans-65" x="212.044922"/>
     <use xlink:href="#DejaVuSans-6e" x="273.568359"/>
     <use xlink:href="#DejaVuSans-74" x="336.947266"/>
     <use xlink:href="#DejaVuSans-20" x="376.15625"/>
     <use xlink:href="#DejaVuSans-6f" x="407.943359"/>
     <use xlink:href="#DejaVuSans-66" x="469.125"/>
     <use xlink:href="#DejaVuSans-20" x="504.330078"/>
     <use xlink:href="#DejaVuSans-41" x="536.117188"/>
     <use xlink:href="#DejaVuSans-64" x="602.775391"/>
     <use xlink:href="#DejaVuSans-75" x="666.251953"/>
     <use xlink:href="#DejaVuSans-6c" x="729.630859"/>
     <use xlink:href="#DejaVuSans-74" x="757.414062"/>
     <use xlink:href="#DejaVuSans-73" x="796.623047"/>
     <use xlink:href="#DejaVuSans-20" x="848.722656"/>
     <use xlink:href="#DejaVuSans-52" x="880.509766"/>
     <use xlink:href="#DejaVuSans-65" x="945.492188"/>
     <use xlink:href="#DejaVuSans-70" x="1007.015625"/>
     <use xlink:href="#DejaVuSans-6f" x="1070.492188"/>
     <use xlink:href="#DejaVuSans-72" x="1131.673828"/>
     <use xlink:href="#DejaVuSans-74" x="1172.787109"/>
     <use xlink:href="#DejaVuSans-69" x="1211.996094"/>
     <use xlink:href="#DejaVuSans-6e" x="1239.779297"/>
     <use xlink:href="#DejaVuSans-67" x="1303.158203"/>
     <use xlink:href="#DejaVuSans-20" x="1366.634766"/>
     <use xlink:href="#DejaVuSans-46" x="1398.421875"/>
     <use xlink:href="#DejaVuSans-61" x="1446.816406"/>
     <use xlink:href="#DejaVuSans-69" x="1508.095703"/>
     <use xlink:href="#DejaVuSans-72" x="1535.878906"/>
     <use xlink:href="#DejaVuSans-20" x="1576.992188"/>
     <use xlink:href="#DejaVuSans-6f" x="1608.779297"/>
     <use xlink:href="#DejaVuSans-72" x="1669.960938"/>
     <use xlink:href="#DejaVuSans-20" x="1711.074219"/>
     <use xlink:href="#DejaVuSans-50" x="1742.861328"/>
     <use xlink:href="#DejaVuSans-6f" x="1799.539062"/>
     <use xlink:href="#DejaVuSans-6f" x="1860.720703"/>
     <use xlink:href="#DejaVuSans-72" x="1921.902344"/>
     <use xlink:href="#DejaVuSans-20" x="1963.015625"/>
     <use xlink:href="#DejaVuSans-48" x="1994.802734"/>
     <use xlink:href="#DejaVuSans-65" x="2069.998047"/>
     <use xlink:href="#DejaVuSans-61" x="2131.521484"/>
     <use xlink:href="#DejaVuSans-6c" x="2192.800781"/>
     <use xlink:href="#DejaVuSans-74" x="2220.583984"/>
     <use xlink:href="#DejaVuSans-68" x="2259.792969"/>
     <use xlink:href="#DejaVuSans-20" x="2323.171875"/>
     <use xlink:href="#DejaVuSans-62" x="2354.958984"/>
     <use xlink:href="#DejaVuSans-79" x="2418.435547"/>
     <use xlink:href="#DejaVuSans-20" x="2477.615234"/>
     <use xlink:href="#DejaVuSans-52" x="2509.402344"/>
     <use xlink:href="#DejaVuSans-65" x="2574.384766"/>
     <use xlink:href="#DejaVuSans-67" x="2635.908203"/>
     <use xlink:href="#DejaVuSans-69" x="2699.384766"/>
     <use xlink:href="#DejaVuSans-6f" x="2727.167969"/>
     <use xlink:href="#DejaVuSans-6e" x="2788.349609"/>
    </g>
   </g>
   <g id="legend_1">
    <g id="patch_43">
     <path d="M 406.65875 118.386875 
L 645.594688 118.386875 
Q 647.594688 118.386875 647.594688 116.386875 
L 647.594688 29.318125 
Q 647.594688 27.318125 645.594688 27.318125 
L 406.65875 27.318125 
Q 404.65875 27.318125 404.65875 29.318125 
L 404.65875 116.386875 
Q 404.65875 118.386875 406.65875 118.386875 
z
" style="fill: #ffffff; opacity: 0.8; stroke: #cccccc; stroke-linejoin: miter"/>
    </g>
    <g id="patch_44">
     <path d="M 408.65875 38.916562 
L 428.65875 38.916562 
L 428.65875 31.916562 
L 408.65875 31.916562 
z
" style="fill: #3b4cc0"/>
    </g>
    <g id="text_18">
     <!-- All Adults -->
     <g transform="translate(436.65875 38.916562) scale(0.1 -0.1)">
      <use xlink:href="#DejaVuSans-41"/>
      <use xlink:href="#DejaVuSans-6c" x="68.408203"/>
      <use xlink:href="#DejaVuSans-6c" x="96.191406"/>
      <use xlink:href="#DejaVuSans-20" x="123.974609"/>
      <use xlink:href="#DejaVuSans-41" x="155.761719"/>
      <use xlink:href="#DejaVuSans-64" x="222.419922"/>
      <use xlink:href="#DejaVuSans-75" x="285.896484"/>
      <use xlink:href="#DejaVuSans-6c" x="349.275391"/>
      <use xlink:href="#DejaVuSans-74" x="377.058594"/>
      <use xlink:href="#DejaVuSans-73" x="416.267578"/>
     </g>
    </g>
    <g id="patch_45">
     <path d="M 408.65875 53.594687 
L 428.65875 53.594687 
L 428.65875 46.594687 
L 408.65875 46.594687 
z
" style="fill: #7b9ff9"/>
    </g>
    <g id="text_19">
     <!-- White -->
     <g transform="translate(436.65875 53.594687) scale(0.1 -0.1)">
      <use xlink:href="#DejaVuSans-57"/>
      <use xlink:href="#DejaVuSans-68" x="98.876953"/>
      <use xlink:href="#DejaVuSans-69" x="162.255859"/>
      <use xlink:href="#DejaVuSans-74" x="190.039062"/>
      <use xlink:href="#DejaVuSans-65" x="229.248047"/>
     </g>
    </g>
    <g id="patch_46">
     <path d="M 408.65875 68.272812 
L 428.65875 68.272812 
L 428.65875 61.272812 
L 408.65875 61.272812 
z
" style="fill: #c0d4f5"/>
    </g>
    <g id="text_20">
     <!-- Black -->
     <g transform="translate(436.65875 68.272812) scale(0.1 -0.1)">
      <defs>
       <path id="DejaVuSans-42" d="M 1259 2228 
L 1259 519 
L 2272 519 
Q 2781 519 3026 730 
Q 3272 941 3272 1375 
Q 3272 1813 3026 2020 
Q 2781 2228 2272 2228 
L 1259 2228 
z
M 1259 4147 
L 1259 2741 
L 2194 2741 
Q 2656 2741 2882 2914 
Q 3109 3088 3109 3444 
Q 3109 3797 2882 3972 
Q 2656 4147 2194 4147 
L 1259 4147 
z
M 628 4666 
L 2241 4666 
Q 2963 4666 3353 4366 
Q 3744 4066 3744 3513 
Q 3744 3084 3544 2831 
Q 3344 2578 2956 2516 
Q 3422 2416 3680 2098 
Q 3938 1781 3938 1306 
Q 3938 681 3513 340 
Q 3088 0 2303 0 
L 628 0 
L 628 4666 
z
" transform="scale(0.015625)"/>
       <path id="DejaVuSans-6b" d="M 581 4863 
L 1159 4863 
L 1159 1991 
L 2875 3500 
L 3609 3500 
L 1753 1863 
L 3688 0 
L 2938 0 
L 1159 1709 
L 1159 0 
L 581 0 
L 581 4863 
z
" transform="scale(0.015625)"/>
      </defs>
      <use xlink:href="#DejaVuSans-42"/>
      <use xlink:href="#DejaVuSans-6c" x="68.603516"/>
      <use xlink:href="#DejaVuSans-61" x="96.386719"/>
      <use xlink:href="#DejaVuSans-63" x="157.666016"/>
      <use xlink:href="#DejaVuSans-6b" x="212.646484"/>
     </g>
    </g>
    <g id="patch_47">
     <path d="M 408.65875 82.950937 
L 428.65875 82.950937 
L 428.65875 75.950937 
L 408.65875 75.950937 
z
" style="fill: #f2cbb7"/>
    </g>
    <g id="text_21">
     <!-- Hispanic -->
     <g transform="translate(436.65875 82.950937) scale(0.1 -0.1)">
      <use xlink:href="#DejaVuSans-48"/>
      <use xlink:href="#DejaVuSans-69" x="75.195312"/>
      <use xlink:href="#DejaVuSans-73" x="102.978516"/>
      <use xlink:href="#DejaVuSans-70" x="155.078125"/>
      <use xlink:href="#DejaVuSans-61" x="218.554688"/>
      <use xlink:href="#DejaVuSans-6e" x="279.833984"/>
      <use xlink:href="#DejaVuSans-69" x="343.212891"/>
      <use xlink:href="#DejaVuSans-63" x="370.996094"/>
     </g>
    </g>
    <g id="patch_48">
     <path d="M 408.65875 97.629062 
L 428.65875 97.629062 
L 428.65875 90.629062 
L 408.65875 90.629062 
z
" style="fill: #ee8468"/>
    </g>
    <g id="text_22">
     <!-- Asian/ Native Hawaiian or Pacific Islander -->
     <g transform="translate(436.65875 97.629062) scale(0.1 -0.1)">
      <defs>
       <path id="DejaVuSans-2f" d="M 1625 4666 
L 2156 4666 
L 531 -594 
L 0 -594 
L 1625 4666 
z
" transform="scale(0.015625)"/>
       <path id="DejaVuSans-76" d="M 191 3500 
L 800 3500 
L 1894 563 
L 2988 3500 
L 3597 3500 
L 2284 0 
L 1503 0 
L 191 3500 
z
" transform="scale(0.015625)"/>
       <path id="DejaVuSans-49" d="M 628 4666 
L 1259 4666 
L 1259 0 
L 628 0 
L 628 4666 
z
" transform="scale(0.015625)"/>
      </defs>
      <use xlink:href="#DejaVuSans-41"/>
      <use xlink:href="#DejaVuSans-73" x="68.408203"/>
      <use xlink:href="#DejaVuSans-69" x="120.507812"/>
      <use xlink:href="#DejaVuSans-61" x="148.291016"/>
      <use xlink:href="#DejaVuSans-6e" x="209.570312"/>
      <use xlink:href="#DejaVuSans-2f" x="272.949219"/>
      <use xlink:href="#DejaVuSans-20" x="306.640625"/>
      <use xlink:href="#DejaVuSans-4e" x="338.427734"/>
      <use xlink:href="#DejaVuSans-61" x="413.232422"/>
      <use xlink:href="#DejaVuSans-74" x="474.511719"/>
      <use xlink:href="#DejaVuSans-69" x="513.720703"/>
      <use xlink:href="#DejaVuSans-76" x="541.503906"/>
      <use xlink:href="#DejaVuSans-65" x="600.683594"/>
      <use xlink:href="#DejaVuSans-20" x="662.207031"/>
      <use xlink:href="#DejaVuSans-48" x="693.994141"/>
      <use xlink:href="#DejaVuSans-61" x="769.189453"/>
      <use xlink:href="#DejaVuSans-77" x="830.46875"/>
      <use xlink:href="#DejaVuSans-61" x="912.255859"/>
      <use xlink:href="#DejaVuSans-69" x="973.535156"/>
      <use xlink:href="#DejaVuSans-69" x="1001.318359"/>
      <use xlink:href="#DejaVuSans-61" x="1029.101562"/>
      <use xlink:href="#DejaVuSans-6e" x="1090.380859"/>
      <use xlink:href="#DejaVuSans-20" x="1153.759766"/>
      <use xlink:href="#DejaVuSans-6f" x="1185.546875"/>
      <use xlink:href="#DejaVuSans-72" x="1246.728516"/>
      <use xlink:href="#DejaVuSans-20" x="1287.841797"/>
      <use xlink:href="#DejaVuSans-50" x="1319.628906"/>
      <use xlink:href="#DejaVuSans-61" x="1375.431641"/>
      <use xlink:href="#DejaVuSans-63" x="1436.710938"/>
      <use xlink:href="#DejaVuSans-69" x="1491.691406"/>
      <use xlink:href="#DejaVuSans-66" x="1519.474609"/>
      <use xlink:href="#DejaVuSans-69" x="1554.679688"/>
      <use xlink:href="#DejaVuSans-63" x="1582.462891"/>
      <use xlink:href="#DejaVuSans-20" x="1637.443359"/>
      <use xlink:href="#DejaVuSans-49" x="1669.230469"/>
      <use xlink:href="#DejaVuSans-73" x="1698.722656"/>
      <use xlink:href="#DejaVuSans-6c" x="1750.822266"/>
      <use xlink:href="#DejaVuSans-61" x="1778.605469"/>
      <use xlink:href="#DejaVuSans-6e" x="1839.884766"/>
      <use xlink:href="#DejaVuSans-64" x="1903.263672"/>
      <use xlink:href="#DejaVuSans-65" x="1966.740234"/>
      <use xlink:href="#DejaVuSans-72" x="2028.263672"/>
     </g>
    </g>
    <g id="patch_49">
     <path d="M 408.65875 112.307187 
L 428.65875 112.307187 
L 428.65875 105.307187 
L 408.65875 105.307187 
z
" style="fill: #b40426"/>
    </g>
    <g id="text_23">
     <!-- American Indian/ Alaska Native -->
     <g transform="translate(436.65875 112.307187) scale(0.1 -0.1)">
      <defs>
       <path id="DejaVuSans-6d" d="M 3328 2828 
Q 3544 3216 3844 3400 
Q 4144 3584 4550 3584 
Q 5097 3584 5394 3201 
Q 5691 2819 5691 2113 
L 5691 0 
L 5113 0 
L 5113 2094 
Q 5113 2597 4934 2840 
Q 4756 3084 4391 3084 
Q 3944 3084 3684 2787 
Q 3425 2491 3425 1978 
L 3425 0 
L 2847 0 
L 2847 2094 
Q 2847 2600 2669 2842 
Q 2491 3084 2119 3084 
Q 1678 3084 1418 2786 
Q 1159 2488 1159 1978 
L 1159 0 
L 581 0 
L 581 3500 
L 1159 3500 
L 1159 2956 
Q 1356 3278 1631 3431 
Q 1906 3584 2284 3584 
Q 2666 3584 2933 3390 
Q 3200 3197 3328 2828 
z
" transform="scale(0.015625)"/>
      </defs>
      <use xlink:href="#DejaVuSans-41"/>
      <use xlink:href="#DejaVuSans-6d" x="68.408203"/>
      <use xlink:href="#DejaVuSans-65" x="165.820312"/>
      <use xlink:href="#DejaVuSans-72" x="227.34375"/>
      <use xlink:href="#DejaVuSans-69" x="268.457031"/>
      <use xlink:href="#DejaVuSans-63" x="296.240234"/>
      <use xlink:href="#DejaVuSans-61" x="351.220703"/>
      <use xlink:href="#DejaVuSans-6e" x="412.5"/>
      <use xlink:href="#DejaVuSans-20" x="475.878906"/>
      <use xlink:href="#DejaVuSans-49" x="507.666016"/>
      <use xlink:href="#DejaVuSans-6e" x="537.158203"/>
      <use xlink:href="#DejaVuSans-64" x="600.537109"/>
      <use xlink:href="#DejaVuSans-69" x="664.013672"/>
      <use xlink:href="#DejaVuSans-61" x="691.796875"/>
      <use xlink:href="#DejaVuSans-6e" x="753.076172"/>
      <use xlink:href="#DejaVuSans-2f" x="816.455078"/>
      <use xlink:href="#DejaVuSans-20" x="850.146484"/>
      <use xlink:href="#DejaVuSans-41" x="881.933594"/>
      <use xlink:href="#DejaVuSans-6c" x="950.341797"/>
      <use xlink:href="#DejaVuSans-61" x="978.125"/>
      <use xlink:href="#DejaVuSans-73" x="1039.404297"/>
      <use xlink:href="#DejaVuSans-6b" x="1091.503906"/>
      <use xlink:href="#DejaVuSans-61" x="1147.664062"/>
      <use xlink:href="#DejaVuSans-20" x="1208.943359"/>
      <use xlink:href="#DejaVuSans-4e" x="1240.730469"/>
      <use xlink:href="#DejaVuSans-61" x="1315.535156"/>
      <use xlink:href="#DejaVuSans-74" x="1376.814453"/>
      <use xlink:href="#DejaVuSans-69" x="1416.023438"/>
      <use xlink:href="#DejaVuSans-76" x="1443.806641"/>
      <use xlink:href="#DejaVuSans-65" x="1502.986328"/>
     </g>
    </g>
   </g>
  </g>
 </g>
 <defs>
  <clipPath id="pca9487c2f9">
   <rect x="42.53875" y="22.318125" width="357.12" height="266.112"/>
  </clipPath>
 </defs>
</svg>
